# Blender v2.82 (sub 7) OBJ File: 'ARROWS.blend'
# www.blender.org
mtllib Arrows v2.mtl
g Cube.001_Cube.009
v -0.739122 0.000000 0.354438
v -0.739122 0.077444 0.354438
v -0.000234 0.000000 -0.354438
v -0.000234 0.077444 -0.354438
v 0.739122 0.000000 0.354438
v 0.739122 0.077444 0.354438
v -0.000181 0.077444 -0.185459
v -0.000181 0.000000 -0.185459
v 0.562930 0.077444 0.354438
v 0.562930 0.000000 0.354438
v -0.562936 0.077444 0.354438
v -0.562936 0.000000 0.354438
v -0.739122 0.000000 -0.310312
v -0.739122 0.077444 -0.310312
v -0.000234 0.000000 -1.019188
v -0.000234 0.077444 -1.019188
v 0.739122 0.000000 -0.310312
v 0.739122 0.077444 -0.310312
v -0.000181 0.077444 -0.850209
v -0.000181 0.000000 -0.850209
v 0.562930 0.077444 -0.310312
v 0.562930 0.000000 -0.310312
v -0.562936 0.077444 -0.310312
v -0.562936 0.000000 -0.310312
v -0.739122 0.000000 1.019188
v -0.739122 0.077444 1.019188
v -0.000234 0.000000 0.310312
v -0.000234 0.077444 0.310312
v 0.739122 0.000000 1.019188
v 0.739122 0.077444 1.019188
v -0.000181 0.077444 0.479291
v -0.000181 0.000000 0.479291
v 0.562930 0.077444 1.019188
v 0.562930 0.000000 1.019188
v -0.562936 0.077444 1.019188
v -0.562936 0.000000 1.019188
vt 0.375000 0.000000
vt 0.625000 0.000000
vt 0.625000 0.250000
vt 0.375000 0.250000
vt 0.375000 0.500000
vt 0.625000 0.500000
vt 0.625000 0.750000
vt 0.375000 0.750000
vt 0.625000 0.779797
vt 0.375000 0.779797
vt 0.345203 0.750000
vt 0.345203 0.559594
vt 0.154797 0.750000
vt 0.125000 0.750000
vt 0.875000 0.500000
vt 0.875000 0.750000
vt 0.845203 0.750000
vt 0.845203 0.559594
vt 0.654797 0.750000
vt 0.602268 0.500000
vt 0.395802 0.500000
vt 0.395802 0.746069
vt 0.602268 0.746069
vt 0.395802 0.250000
vt 0.602268 0.250000
vt 0.602268 0.003931
vt 0.395802 0.003931
vt 0.375000 0.970203
vt 0.625000 0.970203
vt 0.625000 1.000000
vt 0.375000 1.000000
vt 0.375000 0.000000
vt 0.625000 0.000000
vt 0.625000 0.250000
vt 0.375000 0.250000
vt 0.375000 0.500000
vt 0.625000 0.500000
vt 0.625000 0.750000
vt 0.375000 0.750000
vt 0.625000 0.779797
vt 0.375000 0.779797
vt 0.345203 0.750000
vt 0.345203 0.559594
vt 0.154797 0.750000
vt 0.125000 0.750000
vt 0.875000 0.500000
vt 0.875000 0.750000
vt 0.845203 0.750000
vt 0.845203 0.559594
vt 0.654797 0.750000
vt 0.602268 0.500000
vt 0.395802 0.500000
vt 0.395802 0.746069
vt 0.602268 0.746069
vt 0.395802 0.250000
vt 0.602268 0.250000
vt 0.602268 0.003931
vt 0.395802 0.003931
vt 0.375000 0.970203
vt 0.625000 0.970203
vt 0.625000 1.000000
vt 0.375000 1.000000
vt 0.375000 0.000000
vt 0.625000 0.000000
vt 0.625000 0.250000
vt 0.375000 0.250000
vt 0.375000 0.500000
vt 0.625000 0.500000
vt 0.625000 0.750000
vt 0.375000 0.750000
vt 0.625000 0.779797
vt 0.375000 0.779797
vt 0.345203 0.750000
vt 0.345203 0.559594
vt 0.154797 0.750000
vt 0.125000 0.750000
vt 0.875000 0.500000
vt 0.875000 0.750000
vt 0.845203 0.750000
vt 0.845203 0.559594
vt 0.654797 0.750000
vt 0.602268 0.500000
vt 0.395802 0.500000
vt 0.395802 0.746069
vt 0.602268 0.746069
vt 0.395802 0.250000
vt 0.602268 0.250000
vt 0.602268 0.003931
vt 0.395802 0.003931
vt 0.375000 0.970203
vt 0.625000 0.970203
vt 0.625000 1.000000
vt 0.375000 1.000000
vn -0.6923 0.0000 -0.7216
vn 0.6921 0.0000 -0.7218
vn 0.0000 0.0000 1.0000
vn 0.0000 -1.0000 0.0000
vn 0.0000 1.0000 -0.0000
vn -0.6921 0.0000 0.7218
vn 0.6923 0.0000 0.7216
usemtl Material.001
s off
f 1/1/1 2/2/1 4/3/1 3/4/1
f 3/5/2 4/6/2 6/7/2 5/8/2
f 5/8/3 6/7/3 9/9/3 10/10/3
f 3/5/4 5/8/4 10/11/4 8/12/4 12/13/4 1/14/4
f 4/15/5 2/16/5 11/17/5 7/18/5 9/19/5 6/7/5
f 7/20/6 8/21/6 10/22/6 9/23/6
f 8/24/7 7/25/7 11/26/7 12/27/7
f 12/28/3 11/29/3 2/30/3 1/31/3
f 13/32/1 14/33/1 16/34/1 15/35/1
f 15/36/2 16/37/2 18/38/2 17/39/2
f 17/39/3 18/38/3 21/40/3 22/41/3
f 15/36/4 17/39/4 22/42/4 20/43/4 24/44/4 13/45/4
f 16/46/5 14/47/5 23/48/5 19/49/5 21/50/5 18/38/5
f 19/51/6 20/52/6 22/53/6 21/54/6
f 20/55/7 19/56/7 23/57/7 24/58/7
f 24/59/3 23/60/3 14/61/3 13/62/3
f 25/63/1 26/64/1 28/65/1 27/66/1
f 27/67/2 28/68/2 30/69/2 29/70/2
f 29/70/3 30/69/3 33/71/3 34/72/3
f 27/67/4 29/70/4 34/73/4 32/74/4 36/75/4 25/76/4
f 28/77/5 26/78/5 35/79/5 31/80/5 33/81/5 30/69/5
f 31/82/6 32/83/6 34/84/6 33/85/6
f 32/86/7 31/87/7 35/88/7 36/89/7
f 36/90/3 35/91/3 26/92/3 25/93/3
